# xmcd
#
# Track frame offsets:
#	150
#	16935
#	33107
#	54954
#	68569
#	87393
#	107718
#	133680
#	150731
#	166905
#	196991
#	212885
#
# Disc length: 3109 seconds
#
# Revision: 2
# Processed by: cddbd v1.4PL0 Copyright (c) Steve Scherf et al.
# Submitted via: EZCDDA 4.3.2
#
DISCID=960c230c
DTITLE=伍佰＆China Blue - 淚橋
DYEAR=1900
DGENRE=
TTITLE0=淚橋
TTITLE1=頑石的飛行
TTITLE2=海浪
TTITLE3=生命之歌
TTITLE4=沒有頭
TTITLE5=敵人
TTITLE6=破碎的收音機
TTITLE7=晚風
TTITLE8=活下去
TTITLE9=街角的薔薇
TTITLE10=再度重相逢
TTITLE11=花不香
EXTD=
EXTT0=
EXTT1=
EXTT2=
EXTT3=
EXTT4=
EXTT5=
EXTT6=
EXTT7=
EXTT8=
EXTT9=
EXTT10=
EXTT11=
PLAYORDER=
